<?xml version="1.0" standalone="no"?>
<!DOCTYPE svg PUBLIC "-//W3C//DTD SVG 20010904//EN"
 "http://www.w3.org/TR/2001/REC-SVG-20010904/DTD/svg10.dtd">
<svg version="1.0" xmlns="http://www.w3.org/2000/svg"
 width="512.000000pt" height="512.000000pt" viewBox="0 0 512.000000 512.000000"
 preserveAspectRatio="xMidYMid meet">
<metadata>
Created by potrace 1.14, written by Peter Selinger 2001-2017
</metadata>
<g transform="translate(0.000000,512.000000) scale(0.100000,-0.100000)"
fill="#000000" stroke="none">
<path d="M2348 4685 c-2 -2 -30 -6 -63 -10 -150 -16 -420 -88 -555 -147 -77
-34 -244 -120 -272 -139 -14 -11 -29 -19 -32 -19 -10 0 -145 -99 -226 -164
-271 -221 -497 -533 -625 -861 -15 -38 -31 -79 -35 -90 -37 -90 -88 -332 -105
-490 -6 -56 -7 -375 -1 -404 3 -13 8 -49 12 -80 11 -100 54 -283 94 -403 148
-433 425 -802 805 -1069 272 -192 638 -332 950 -364 33 -4 71 -8 85 -11 62
-11 362 -4 450 11 14 2 50 7 80 10 30 4 58 9 61 11 3 2 21 6 40 9 58 10 109
25 234 66 704 237 1238 836 1398 1569 33 149 36 175 44 357 5 128 3 160 -10
195 -43 110 -153 161 -277 128 -23 -6 -74 -12 -113 -14 -235 -9 -466 121 -582
329 -55 99 -73 174 -78 325 -3 74 -7 91 -32 128 -50 76 -140 112 -230 92 -146
-33 -247 -30 -369 11 -200 67 -361 240 -416 448 -18 67 -23 192 -11 252 6 30
13 69 16 87 14 82 -48 186 -128 216 -39 15 -103 27 -109 21z m-395 -879 c138
-66 210 -229 165 -375 -58 -190 -262 -281 -441 -198 -197 91 -244 366 -88 513
35 34 105 75 144 85 58 15 160 3 220 -25z m997 -829 c152 -36 253 -169 246
-323 -5 -118 -64 -212 -167 -269 -72 -40 -191 -45 -269 -13 -70 29 -134 89
-167 156 -24 49 -28 69 -28 142 1 72 5 93 27 135 47 90 138 159 233 175 60 11
65 11 125 -3z m-1446 -228 c209 -80 268 -354 110 -515 -68 -71 -131 -97 -229
-97 -209 0 -361 199 -306 400 50 183 246 280 425 212z m658 -862 c164 -76 230
-278 145 -443 -24 -47 -112 -121 -170 -143 -113 -43 -262 -8 -341 80 -159 175
-89 450 134 524 63 21 166 13 232 -18z m1275 3 c186 -82 246 -321 122 -484
-143 -187 -431 -157 -540 56 -27 52 -36 164 -20 225 14 53 66 128 113 166 85
68 220 84 325 37z"/>
</g>
</svg>
